<svg xmlns="http://www.w3.org/2000/svg" xmlns:xlink="http://www.w3.org/1999/xlink" viewBox="0 0 600 600" width="600" height="600" role="img"><title>Unbranded acoustic guitar — editable layer</title><path d="M282 70L323 65L337 320Q395 295 430 360Q465 432 402 488Q359 530 295 515Q216 500 210 423Q208 363 262 341Z" fill="#c27539" stroke="#151d32" stroke-width="5" stroke-linejoin="round" stroke-linecap="round"/><rect x="280" y="100" width="42" height="235" rx="5" fill="#855232" stroke="#151d32" stroke-width="5"/><circle cx="305" cy="410" r="34" fill="#151d32" stroke="#151d32" stroke-width="5"/><rect x="265" y="460" width="88" height="16" rx="3" fill="#151d32" stroke="#151d32" stroke-width="5"/><path d="M287 66L289 476M294 66L297 476M301 66L305 476M308 66L313 476M315 66L321 476" fill="none" stroke="#fffaf0" stroke-width="2" stroke-linejoin="round" stroke-linecap="round"/><circle cx="275" cy="105" r="8" fill="#ffd15c" stroke="#151d32" stroke-width="5"/><circle cx="333" cy="88" r="8" fill="#ffd15c" stroke="#151d32" stroke-width="5"/><circle cx="276" cy="136" r="8" fill="#ffd15c" stroke="#151d32" stroke-width="5"/><circle cx="333" cy="118" r="8" fill="#ffd15c" stroke="#151d32" stroke-width="5"/></svg>