<svg xmlns="http://www.w3.org/2000/svg" xmlns:xlink="http://www.w3.org/1999/xlink" viewBox="0 0 1600 200" width="1600" height="200" role="img"><title>String lights — editable layer</title><path d="M20 25Q800 190 1580 20" fill="none" stroke="#151d32" stroke-width="6" stroke-linejoin="round" stroke-linecap="round"/><path d="M30 25.0L30 49.0" fill="none" stroke="#151d32" stroke-width="5" stroke-linejoin="round" stroke-linecap="round"/><rect x="22" y="40.0" width="16" height="16" rx="2" fill="#151d32" stroke="#151d32" stroke-width="5"/><ellipse cx="30" cy="65.0" rx="12" ry="20" fill="#ffd15c" stroke="#151d32" stroke-width="3"/><path d="M120 40.61870901440848L120 64.61870901440848" fill="none" stroke="#151d32" stroke-width="5" stroke-linejoin="round" stroke-linecap="round"/><rect x="112" y="55.61870901440848" width="16" height="16" rx="2" fill="#151d32" stroke="#151d32" stroke-width="5"/><ellipse cx="120" cy="80.61870901440848" rx="12" ry="20" fill="#ffd15c" stroke="#151d32" stroke-width="3"/><path d="M210 55.705541625908L210 79.705541625908" fill="none" stroke="#151d32" stroke-width="5" stroke-linejoin="round" stroke-linecap="round"/><rect x="202" y="70.705541625908" width="16" height="16" rx="2" fill="#151d32" stroke="#151d32" stroke-width="5"/><ellipse cx="210" cy="95.705541625908" rx="12" ry="20" fill="#ffd15c" stroke="#151d32" stroke-width="3"/><path d="M300 69.74673384457523L300 93.74673384457523" fill="none" stroke="#151d32" stroke-width="5" stroke-linejoin="round" stroke-linecap="round"/><rect x="292" y="84.74673384457523" width="16" height="16" rx="2" fill="#151d32" stroke="#151d32" stroke-width="5"/><ellipse cx="300" cy="109.74673384457523" rx="12" ry="20" fill="#ffd15c" stroke="#151d32" stroke-width="3"/><path d="M390 82.26412970995736L390 106.26412970995736" fill="none" stroke="#151d32" stroke-width="5" stroke-linejoin="round" stroke-linecap="round"/><rect x="382" y="97.26412970995736" width="16" height="16" rx="2" fill="#151d32" stroke="#151d32" stroke-width="5"/><ellipse cx="390" cy="122.26412970995736" rx="12" ry="20" fill="#ffd15c" stroke="#151d32" stroke-width="3"/><path d="M480 92.83146431882035L480 116.83146431882035" fill="none" stroke="#151d32" stroke-width="5" stroke-linejoin="round" stroke-linecap="round"/><rect x="472" y="107.83146431882035" width="16" height="16" rx="2" fill="#151d32" stroke="#151d32" stroke-width="5"/><ellipse cx="480" cy="132.83146431882034" rx="12" ry="20" fill="#ffd15c" stroke="#151d32" stroke-width="3"/><path d="M570 101.0888797651803L570 125.0888797651803" fill="none" stroke="#151d32" stroke-width="5" stroke-linejoin="round" stroke-linecap="round"/><rect x="562" y="116.0888797651803" width="16" height="16" rx="2" fill="#151d32" stroke="#151d32" stroke-width="5"/><ellipse cx="570" cy="141.0888797651803" rx="12" ry="20" fill="#ffd15c" stroke="#151d32" stroke-width="3"/><path d="M660 106.75517966968962L660 130.75517966968962" fill="none" stroke="#151d32" stroke-width="5" stroke-linejoin="round" stroke-linecap="round"/><rect x="652" y="121.75517966968962" width="16" height="16" rx="2" fill="#151d32" stroke="#151d32" stroke-width="5"/><ellipse cx="660" cy="146.75517966968962" rx="12" ry="20" fill="#ffd15c" stroke="#151d32" stroke-width="3"/><path d="M750 109.63740498507794L750 133.63740498507792" fill="none" stroke="#151d32" stroke-width="5" stroke-linejoin="round" stroke-linecap="round"/><rect x="742" y="124.63740498507794" width="16" height="16" rx="2" fill="#151d32" stroke="#151d32" stroke-width="5"/><ellipse cx="750" cy="149.63740498507792" rx="12" ry="20" fill="#ffd15c" stroke="#151d32" stroke-width="3"/><path d="M840 109.63740498507794L840 133.63740498507792" fill="none" stroke="#151d32" stroke-width="5" stroke-linejoin="round" stroke-linecap="round"/><rect x="832" y="124.63740498507794" width="16" height="16" rx="2" fill="#151d32" stroke="#151d32" stroke-width="5"/><ellipse cx="840" cy="149.63740498507792" rx="12" ry="20" fill="#ffd15c" stroke="#151d32" stroke-width="3"/><path d="M930 106.75517966968962L930 130.75517966968962" fill="none" stroke="#151d32" stroke-width="5" stroke-linejoin="round" stroke-linecap="round"/><rect x="922" y="121.75517966968962" width="16" height="16" rx="2" fill="#151d32" stroke="#151d32" stroke-width="5"/><ellipse cx="930" cy="146.75517966968962" rx="12" ry="20" fill="#ffd15c" stroke="#151d32" stroke-width="3"/><path d="M1020 101.08887976518032L1020 125.08887976518032" fill="none" stroke="#151d32" stroke-width="5" stroke-linejoin="round" stroke-linecap="round"/><rect x="1012" y="116.08887976518032" width="16" height="16" rx="2" fill="#151d32" stroke="#151d32" stroke-width="5"/><ellipse cx="1020" cy="141.0888797651803" rx="12" ry="20" fill="#ffd15c" stroke="#151d32" stroke-width="3"/><path d="M1110 92.83146431882037L1110 116.83146431882037" fill="none" stroke="#151d32" stroke-width="5" stroke-linejoin="round" stroke-linecap="round"/><rect x="1102" y="107.83146431882037" width="16" height="16" rx="2" fill="#151d32" stroke="#151d32" stroke-width="5"/><ellipse cx="1110" cy="132.83146431882037" rx="12" ry="20" fill="#ffd15c" stroke="#151d32" stroke-width="3"/><path d="M1200 82.26412970995736L1200 106.26412970995736" fill="none" stroke="#151d32" stroke-width="5" stroke-linejoin="round" stroke-linecap="round"/><rect x="1192" y="97.26412970995736" width="16" height="16" rx="2" fill="#151d32" stroke="#151d32" stroke-width="5"/><ellipse cx="1200" cy="122.26412970995736" rx="12" ry="20" fill="#ffd15c" stroke="#151d32" stroke-width="3"/><path d="M1290 69.74673384457526L1290 93.74673384457526" fill="none" stroke="#151d32" stroke-width="5" stroke-linejoin="round" stroke-linecap="round"/><rect x="1282" y="84.74673384457526" width="16" height="16" rx="2" fill="#151d32" stroke="#151d32" stroke-width="5"/><ellipse cx="1290" cy="109.74673384457526" rx="12" ry="20" fill="#ffd15c" stroke="#151d32" stroke-width="3"/><path d="M1380 55.705541625908026L1380 79.70554162590803" fill="none" stroke="#151d32" stroke-width="5" stroke-linejoin="round" stroke-linecap="round"/><rect x="1372" y="70.70554162590803" width="16" height="16" rx="2" fill="#151d32" stroke="#151d32" stroke-width="5"/><ellipse cx="1380" cy="95.70554162590803" rx="12" ry="20" fill="#ffd15c" stroke="#151d32" stroke-width="3"/><path d="M1470 40.61870901440848L1470 64.61870901440848" fill="none" stroke="#151d32" stroke-width="5" stroke-linejoin="round" stroke-linecap="round"/><rect x="1462" y="55.61870901440848" width="16" height="16" rx="2" fill="#151d32" stroke="#151d32" stroke-width="5"/><ellipse cx="1470" cy="80.61870901440848" rx="12" ry="20" fill="#ffd15c" stroke="#151d32" stroke-width="3"/><path d="M1560 25.00000000000001L1560 49.000000000000014" fill="none" stroke="#151d32" stroke-width="5" stroke-linejoin="round" stroke-linecap="round"/><rect x="1552" y="40.000000000000014" width="16" height="16" rx="2" fill="#151d32" stroke="#151d32" stroke-width="5"/><ellipse cx="1560" cy="65.00000000000001" rx="12" ry="20" fill="#ffd15c" stroke="#151d32" stroke-width="3"/></svg>