<svg xmlns="http://www.w3.org/2000/svg" xmlns:xlink="http://www.w3.org/1999/xlink" viewBox="0 0 600 600" width="600" height="600" role="img"><title>Beach-painted tip bucket — editable layer</title><path d="M125 160Q85 25 300 25Q515 25 475 160" fill="none" stroke="#151d32" stroke-width="10" stroke-linejoin="round" stroke-linecap="round"/><path d="M90 110L130 490Q300 550 470 490L510 110Z" fill="#0589c8" stroke="#151d32" stroke-width="5" stroke-linejoin="round" stroke-linecap="round"/><path d="M112 330Q300 280 488 330L470 490Q300 545 130 490Z" fill="#ffd15c" stroke="#151d32" stroke-width="5" stroke-linejoin="round" stroke-linecap="round"/><path d="M113 280Q240 247 490 275" fill="none" stroke="#82e0e0" stroke-width="15" stroke-linejoin="round" stroke-linecap="round"/><path d="M145 375Q290 465 450 365Q315 550 145 375" fill="#ff5798" stroke="#151d32" stroke-width="4" stroke-linejoin="round" stroke-linecap="round"/><g transform="translate(165 220) scale(0.67)"><path d="M0 230Q28 150 15 70" fill="none" stroke="#93683f" stroke-width="17" stroke-linejoin="round" stroke-linecap="round"/><path d="M15 70Q-55.0 20 -110 45Q-55.0 65 15 70" fill="#287663" stroke="#151d32" stroke-width="3" stroke-linejoin="round" stroke-linecap="round"/><path d="M15 70Q-42.5 -35 -85 -10Q-42.5 10 15 70" fill="#287663" stroke="#151d32" stroke-width="3" stroke-linejoin="round" stroke-linecap="round"/><path d="M15 70Q-17.5 -60 -35 -35Q-17.5 -15 15 70" fill="#287663" stroke="#151d32" stroke-width="3" stroke-linejoin="round" stroke-linecap="round"/><path d="M15 70Q20.0 -55 40 -30Q20.0 -10 15 70" fill="#287663" stroke="#151d32" stroke-width="3" stroke-linejoin="round" stroke-linecap="round"/><path d="M15 70Q47.5 -15 95 10Q47.5 30 15 70" fill="#287663" stroke="#151d32" stroke-width="3" stroke-linejoin="round" stroke-linecap="round"/><path d="M15 70Q55.0 35 110 60Q55.0 80 15 70" fill="#287663" stroke="#151d32" stroke-width="3" stroke-linejoin="round" stroke-linecap="round"/></g><g transform="translate(430 205) scale(0.71)"><path d="M0 230Q28 150 15 70" fill="none" stroke="#93683f" stroke-width="17" stroke-linejoin="round" stroke-linecap="round"/><path d="M15 70Q-55.0 20 -110 45Q-55.0 65 15 70" fill="#287663" stroke="#151d32" stroke-width="3" stroke-linejoin="round" stroke-linecap="round"/><path d="M15 70Q-42.5 -35 -85 -10Q-42.5 10 15 70" fill="#287663" stroke="#151d32" stroke-width="3" stroke-linejoin="round" stroke-linecap="round"/><path d="M15 70Q-17.5 -60 -35 -35Q-17.5 -15 15 70" fill="#287663" stroke="#151d32" stroke-width="3" stroke-linejoin="round" stroke-linecap="round"/><path d="M15 70Q20.0 -55 40 -30Q20.0 -10 15 70" fill="#287663" stroke="#151d32" stroke-width="3" stroke-linejoin="round" stroke-linecap="round"/><path d="M15 70Q47.5 -15 95 10Q47.5 30 15 70" fill="#287663" stroke="#151d32" stroke-width="3" stroke-linejoin="round" stroke-linecap="round"/><path d="M15 70Q55.0 35 110 60Q55.0 80 15 70" fill="#287663" stroke="#151d32" stroke-width="3" stroke-linejoin="round" stroke-linecap="round"/></g><path d="M130 180Q170 140 225 180Q265 145 310 180" fill="none" stroke="#fffaf0" stroke-width="20" stroke-linejoin="round" stroke-linecap="round"/><ellipse cx="300" cy="110" rx="210" ry="60" fill="#fffaf0" stroke="#151d32" stroke-width="8"/><ellipse cx="300" cy="110" rx="178" ry="35" fill="#151d32"/></svg>